<svg version="1.2" xmlns="http://www.w3.org/2000/svg" viewBox="0 0 3200 1200" width="800" height="300">
	<title>logo</title>
	<style>
		.s0 { opacity: 1;fill: #000000 } 
		.s1 { opacity: .5;fill: none;stroke: #000000;stroke-miterlimit:100 } 
		.s2 { fill: #000000 } 
	</style>
	<g id="Layer 1">
		<path id="Path 0" fill-rule="evenodd" class="s0" d="m2782 116c7.6 0 12.9 0.6 19 2.1 4.7 1.2 11.4 3.6 15 5.3 3.6 1.8 9.2 5 12.5 7.3 3.3 2.2 9.2 7.4 13 11.4 3.9 4.1 9.1 10.3 11.5 13.8 2.5 3.5 4.8 6.9 5.2 7.5 0.3 0.6 1.6 3.3 2.9 6.1 1.2 2.7 3.1 9.3 4.2 14.5 1.3 6.1 1.9 12.5 1.8 18-0.2 4.7-0.6 8.9-1.1 9.5-0.4 0.6-1.1 3.2-1.4 6-0.4 2.7-1.4 7.3-2.3 10-0.9 2.7-2.3 6.6-3.2 8.5-0.9 1.9-3.7 6.7-6.2 10.5-2.6 3.8-6.8 8.8-9.5 11-2.7 2.2-6.7 5.8-8.9 8.1-2.2 2.2-7.2 5.8-11 7.9-3.8 2.1-7.3 4.4-7.7 4.9-0.4 0.6-2 1.1-3.5 1.2-1.5 0-4.1 1-5.8 2.2-1.7 1.2-4.8 2.5-7 2.9-2.2 0.4-4.3 0.8-4.8 1-0.4 0.2-1.1 0.3-1.7 0.3-0.6 0-1 1-1.1 2.2 0 1.3-0.3 33.4-0.6 71.3-0.2 37.9-0.2 72.1 0.2 76 0.5 6.9 0.6 7 4.3 8.7 2 1 5.5 2.2 7.7 2.7 2.2 0.5 7.6 1.5 12 2.1 4.4 0.7 8.9 1.7 10 2.3 1.1 0.6 2.4 1 3 0.9 0.6-0.1 1.9 0.3 3 1.1 1.1 0.7 4.3 2.2 7 3.2 2.8 1 6.8 2.9 9 4.2 2.2 1.3 5.6 3.4 7.6 4.6 2 1.2 8.2 5.8 13.9 10.2 5.7 4.4 13.9 12.1 18.3 17 4.4 4.9 8.8 10.5 9.8 12.3 1.1 1.7 2.5 3.2 3.1 3.2 0.7 0 8.3-4.1 16.8-9.1 8.5-5.1 18.4-11 22-13.2 3.6-2.2 8.1-5 10-6.3 1.9-1.2 10-6.1 18-11 8-4.8 16.3-9.8 18.5-11.1 2.2-1.3 8.5-5.3 14-8.9 5.5-3.5 10.7-6.7 11.5-7.1 0.8-0.3 5.8-3.4 11-6.8 7.1-4.7 9.6-6.9 10-8.9 0.3-1.4 0.2-2.6-0.3-2.6-0.4 0-0.6-0.3-0.5-0.7 0.1-0.5-0.5-3-1.4-5.8-0.9-2.7-2.3-8.1-3.1-12-1-4.2-1.6-11.7-1.5-19 0-8.2 0.4-12.9 1.4-14.8 0.8-1.5 1.4-3.6 1.4-4.7 0-1.1 1.1-4.4 2.4-7.2 1.3-2.9 2.7-6 3.1-6.8 0.3-0.8 1.6-3.1 2.8-5.1 1.2-2 4-6.3 6.2-9.5 2.2-3.3 7.1-9.1 11-13 5.5-5.5 9-8 16-11.4 4.9-2.4 12.4-5.4 16.5-6.7 4.1-1.3 12.2-2.9 18-3.5 8.1-0.9 12.3-0.9 18.5 0 4.4 0.7 11.2 2.4 15 3.9 3.8 1.4 7.2 2.9 7.5 3.3 0.3 0.3 2.3 1.4 4.5 2.5 2.2 1 6.7 3.8 10 6.3 3.3 2.5 8.5 6.8 11.5 9.6 3 2.8 6.5 6.6 7.7 8.4 1.3 1.7 2.3 3.5 2.3 4 0 0.4 1.4 3 3.2 5.7 1.8 2.8 3.3 5.4 3.4 6 0 0.6 0.6 2.4 1.3 4 0.7 1.6 1.2 3 1.1 3-0.1 0 0.3 1.1 0.8 2.5 0.5 1.4 1.3 4.3 1.6 6.5 0.4 2.2 1.2 5.4 2 7 0.9 2.2 1.1 5.3 0.5 12-0.4 4.9-1.2 11-1.8 13.5-0.5 2.5-1.3 5.9-1.6 7.5-0.4 1.6-1.3 4.5-2.1 6.3-0.8 1.7-1.4 3.4-1.4 3.7 0 0.3-1.3 3.3-2.9 6.8-1.7 3.4-3.7 6.9-4.6 7.7-0.9 0.8-1.6 1.9-1.5 2.5 0 0.6-3.5 4.4-7.8 8.5-4.4 4.1-10.6 9.6-13.8 12.1-3.3 2.5-7.9 5.6-10.4 6.9-2.5 1.2-4.7 2.7-5 3.1-0.3 0.5-4.3 2-9 3.4-4.7 1.4-12.3 2.7-17 3-5.4 0.4-11.6 0.1-17-0.8-4.7-0.8-10.8-2.1-13.5-3-2.8-0.8-7.7-2.8-11-4.4-3.3-1.7-8.3-4.3-11-5.8-2.8-1.5-8.2-5.9-19-16.7l-5 3.2c-2.8 1.9-5.7 3.4-6.5 3.6-0.8 0.1-1.8 0.3-2.2 0.3-0.4 0.1-1.4 0.9-2.4 1.9-1 0.9-2.5 1.8-3.3 1.9-0.9 0.2-2.7 1.1-4.1 2-1.4 1-6.1 3.9-10.5 6.5-4.4 2.7-8.2 4.8-8.5 4.8-0.3 0-2 1.4-3.8 3.2-1.8 1.8-3.3 2.9-3.2 2.3 0-0.6-1.1 0.1-2.5 1.5-1.4 1.4-2.5 2.1-2.5 1.5 0-0.6-0.8 0-1.8 1.2-0.9 1.2-2.3 2.3-3.1 2.5-0.7 0.2-2.5 1.3-4 2.6-1.4 1.3-4.6 3.4-7.1 4.7-2.5 1.3-4.7 2.2-5 1.9-0.3-0.2-1.3 0.7-2.3 2.1-0.9 1.4-2.1 2.5-2.7 2.5-0.6 0-2.9 1.2-5.3 2.7-2.3 1.4-4.8 2.7-5.5 2.7-0.6 0.1-1.2 0.4-1.2 0.9 0 0.4-1.2 1.4-2.8 2.2-1.5 0.9-4 2.4-5.7 3.5-1.7 1.1-4.6 2.9-6.5 4-1.9 1.1-6.7 4.1-10.5 6.5-3.8 2.5-8.1 5.1-9.5 5.8-1.4 0.6-3.2 1.9-4.1 2.7-1.6 1.4-1.6 2 0.1 8 0.9 3.6 2.9 11.5 4.4 17.5 1.5 6 3.2 13 3.8 15.5 0.6 2.5 1.2 10.6 1.5 18 0.4 10.9 0.1 15.3-1.5 23-1 5.2-2.4 10.4-3 11.5-0.6 1.1-0.9 2.2-0.7 2.5 0.2 0.3-0.9 5.7-2.6 12-1.6 6.3-2.9 12.3-2.9 13.3 0 0.9 1.2 2.3 2.7 3 1.6 0.6 5.6 3.1 9 5.5 3.5 2.3 6.6 4.2 7 4.2 0.5 0 2.1 1.1 3.8 2.4 1.7 1.3 4.8 3.3 7 4.5 2.2 1.2 6.9 3.9 10.5 6.1 3.6 2.2 7.2 4.5 8 5 0.8 0.6 2.5 1.5 3.7 2 1.3 0.6 2.5 1.3 2.7 1.8 0.2 0.4 5 3.5 10.7 7 5.7 3.5 11.3 6.9 12.4 7.5 1.1 0.7 4.3 2.7 7.2 4.5 2.9 1.7 5.5 3.2 5.8 3.2 0.3 0 3.5 1.9 7.2 4.2 3.8 2.3 7.7 4.9 8.8 5.8 1.1 1 4.2 3 7 4.5 2.7 1.5 5.7 3.3 6.5 4.1 0.8 0.7 2.3 1.4 3.2 1.4 1 0 2.9 1.1 4.3 2.5 1.7 1.7 3 2.3 4.2 1.8 1-0.4 6.7-4.7 12.8-9.5 6.1-4.8 14.2-10.3 18-12.2 3.8-1.8 9.5-4.2 12.5-5.1 3.9-1.3 9.7-1.9 19.5-2.1 10.2-0.3 15.6 0 20 1.2 3.3 0.8 6.7 1.8 7.5 2.1 0.8 0.3 2.2 0.7 3 0.9 0.8 0.2 3.5 1.3 6 2.5 2.5 1.2 5.4 2.6 6.5 3.2 1.1 0.5 3.5 1.8 5.2 2.9 1.8 1 5.2 3.5 7.5 5.5 2.4 2.1 5.8 5.4 7.7 7.3 1.9 1.9 6 6.6 9.1 10.5 3.2 3.9 6.9 9.5 8.3 12.5 1.4 3 3.3 7.8 4.2 10.5 0.9 2.7 2.1 7.5 2.6 10.5 0.6 3 0.9 10.7 0.9 17-0.1 6.3-0.5 12-1 12.5-0.4 0.5-1 2.8-1.3 5-0.3 2.2-0.7 4.9-1 6-0.2 1.1-2.3 5.8-4.5 10.5-2.2 4.7-6 11.2-8.5 14.5-2.4 3.3-5.8 7.1-7.4 8.5-1.6 1.4-3.5 3.5-4.1 4.8-0.7 1.2-1.6 2-2.2 1.7-0.6-0.3-1.4 0.4-2 1.5-0.6 1.1-1.3 1.8-1.8 1.5-0.4-0.3-1.4 0.1-2.2 0.9-0.8 0.8-3.8 2.6-6.5 4.1-2.8 1.6-5.3 3.4-5.8 4.1-0.4 0.8-2.2 1.7-4 2-1.7 0.4-3.6 1-4.2 1.5-0.6 0.4-3.9 1.5-7.5 2.4-3.6 0.9-8.8 2.1-11.5 2.5-2.9 0.5-8.1 0.5-12.5 0-4.1-0.5-11.3-1.8-16-2.9-4.7-1.1-10.1-2.6-12-3.3-1.9-0.7-4.2-1.8-5-2.3-0.8-0.5-3.5-2-6-3.2-2.5-1.3-6.5-3.9-9-5.8-2.5-1.9-6.7-5.4-9.3-7.7-2.6-2.4-6.4-6.8-8.4-9.8-2-3-4.9-8-6.5-11-1.5-3-2.8-6.2-2.8-7 0-0.8-0.9-2.9-2-4.5-1.1-1.6-2-4.1-2-5.5 0-1.4-0.5-3.1-1.2-3.8-1-0.9-1.3-5.7-1.2-17.5 0.1-13.8 0.4-17.3 2.3-23.2 1.2-3.9 2.9-9 3.6-11.5 1.4-4.4 1.3-4.6-1.3-7.3-1.5-1.5-3.3-2.7-4-2.7-0.6 0-1.2-0.3-1.2-0.7 0-0.5-4.3-3.5-9.5-6.8-5.3-3.3-15.1-9.5-21.8-13.9-6.7-4.3-13.8-8.8-15.7-10.1-1.9-1.2-8.7-5.2-15-8.9-6.3-3.7-12.2-7.1-13-7.7-0.8-0.5-3.1-1.7-5-2.7-1.9-0.9-3.7-2-4-2.3-0.3-0.3-6.3-4.4-13.5-9.1-7.2-4.7-15.2-9.4-17.9-10.4-2.7-1-5.4-2.5-6-3.2-0.6-0.7-1.5-1.3-2.1-1.3-0.6 0-1.9 1-3 2.1-1.1 1.1-1.6 2-1 2 0.6 0-1 1.9-3.5 4.3-2.5 2.3-5.7 5.9-7.3 8-1.5 2-3.1 3.7-3.7 3.7-0.5 0-2 1.1-3.4 2.5-1.4 1.4-2.2 2.5-1.8 2.5 0.4 0-0.4 0.8-1.8 1.7-1.4 1-2.9 2.1-3.5 2.5-0.6 0.4-4.7 3.2-9.3 6.3-4.5 3-8.5 5.5-9 5.5-0.4-0.1-1.6 0.9-2.7 2-1.1 1.1-2.5 2.1-3.1 2-0.6 0-2.2 1.1-3.5 2.4-1.3 1.3-5.7 3.8-9.7 5.5-3.9 1.7-8 3.1-9 3.1-1 0-2.2 0.4-2.8 0.9-0.5 0.6-5.2 1.9-10.4 3-5.2 1.1-11.5 2.3-14 2.6-2.5 0.4-5.2 0.8-6 1.1-0.8 0.2-1.6 1.4-1.6 2.6-0.1 1.3-0.2 31.8-0.2 67.8 0 36 0.2 70 0.5 75.5 0.3 5.5 0.9 10.7 1.3 11.5 0.5 0.9 2.4 1.6 4.6 1.8 2.2 0.1 5.5 0.7 7.4 1.3 1.9 0.6 4.7 1.8 6.2 2.5 1.6 0.8 2.8 1.2 2.8 0.9 0-0.3 1.7 0.6 3.7 2 2.1 1.4 4.2 2.6 4.8 2.6 0.6-0.1 4.8 2.9 9.5 6.4 4.7 3.6 10.2 8.6 12.2 11.2 2 2.7 5.7 7.5 8.1 10.8 2.5 3.3 4.8 7.1 5.2 8.5 0.4 1.4 1.9 4.5 3.3 7q2.6 4.5 3.9 13.5c0.8 5 1.5 10.4 1.7 12 0.1 1.6-0.1 6.6-0.6 11-0.4 4.4-1.3 10.3-1.9 13-0.6 2.8-1.3 5.6-1.5 6.3-0.2 0.6-0.4 1.3-0.3 1.5 0.1 0.1-2 4.2-4.6 9.2-2.6 5-5.3 9.7-5.9 10.6-0.6 0.9-4 4.8-7.6 8.6-3.6 3.8-9 9.1-12.1 11.8-3.2 2.8-6.9 6-8.3 7.3-1.4 1.2-3.7 2.2-5.1 2.2-1.4 0-2.5 0.5-2.5 1 0 0.5-4.4 2.3-9.8 3.9-5.3 1.7-12.9 3.2-16.7 3.4-3.8 0.2-11.9-0.2-18-0.9-6.1-0.7-13.7-2.2-17-3.2-3.3-1-9.2-3.5-13-5.4-3.8-1.9-9.3-5.5-12-7.8-2.8-2.4-5.1-4.9-5.3-5.6-0.1-0.8-0.8-1.1-1.5-0.8-0.7 0.3-2.9-1.3-5.2-3.8-2.2-2.4-4.8-5.4-5.8-6.6-0.9-1.2-1.7-2.7-1.7-3.2 0-0.5-0.4-1-1-1-0.6 0-1-0.6-1-1.2 0.1-0.7-0.8-2.5-2-4-1.1-1.6-2-3.7-2-4.8 0-1.1-0.4-2.1-0.8-2.2-0.4-0.2-1.9-3.7-3.1-7.8-1.3-4.1-2.6-9.7-3-12.5-0.3-2.7-0.4-10.6-0.3-17.5 0.2-8.2 0.8-14.2 1.9-17.5 0.9-2.7 2.5-7 3.6-9.5 1-2.5 2.8-6.3 3.9-8.5 1.1-2.2 4.4-7.1 7.3-11 2.9-3.9 8.4-9.9 12.1-13.5 4.8-4.6 9.9-8.1 16.9-11.7 5.5-2.8 13.2-6 17-7.1 3.8-1.1 8.2-2.3 12.5-3.2l-0.5-158.1-4.5 0.1c-2.5 0-6.3-0.3-8.5-0.9-2.2-0.5-7.4-1.8-11.5-2.9-4.1-1.2-9.4-2.8-11.8-3.6-2.3-0.9-7.7-3.3-12-5.4-4.2-2.1-10.2-5.2-13.2-7-3-1.7-8-5.2-11-7.8-3-2.5-6.6-5.2-8-5.9-1.4-0.7-5.4-4.4-9-8.2-3.6-3.8-8.5-9.3-11-12.2-2.5-2.9-5.1-5.9-5.8-6.7-0.6-0.8-1.2-1.9-1.2-2.4 0-0.5-0.4-1-1-1-0.6 0-1.3 0.7-1.8 1.6-0.4 0.9-0.9 1.5-1.2 1.3-0.3-0.1-2.5 0.9-5 2.2-2.5 1.3-4.9 2.4-5.5 2.5-0.6 0.1-1.5 0.2-2.1 0.3-0.6 0-2.2 1.2-3.5 2.5-1.3 1.3-7.3 5.4-13.4 9.1-6.1 3.7-11.7 6.9-12.5 7-0.8 0.2-3.8 1.7-6.5 3.4-2.8 1.7-6.1 3.7-7.5 4.4-1.4 0.6-4.4 2.4-6.8 4-2.3 1.5-4 3.2-3.7 3.7 0.3 0.5-0.1 1.2-0.8 1.5-0.6 0.3-1.9 0.7-2.7 0.8-0.8 0.1-3.2 1.2-5.3 2.5-2 1.2-3.7 2.7-3.7 3.2 0 0.5-1.2 1.5-2.8 2.2-1.5 0.6-3 1.1-3.5 1-0.4-0.1-0.7 0.3-0.7 0.8 0 0.5-1.5 1.8-3.3 2.7-1.7 1-3.8 1.8-4.5 1.8-0.7 0-2.3 1.2-3.6 2.5-1.3 1.4-3 2.5-3.7 2.5-0.8 0.1-4 1.6-7.2 3.5-3.3 1.9-6.9 4.4-8 5.6-1.2 1.1-3.8 3-5.7 4.2-1.9 1.2-4.3 2.8-5.2 3.4-1.7 1.2-1.6 1.6 0.3 7.3 1.1 3.3 2.4 9.1 3 13 0.6 3.9 1.7 9.2 2.5 12 0.8 2.7 1.4 7 1.4 9.5 0 2.5-0.6 6.3-1.4 8.5-0.8 2.2-1.3 4.2-1 4.5 0.2 0.3-0.2 3-1 6-0.8 3-2 7.3-2.6 9.5-0.7 2.2-2.2 5.8-3.3 8-1.2 2.2-2.8 4.8-3.7 5.8-0.8 1-1.2 1.8-0.8 1.7 0.5 0-2.7 3.9-6.9 8.7-5.6 6.4-10.3 10.5-17.3 15.1-5.2 3.4-10.5 7.1-11.8 8.2-1.2 1.1-3 1.8-4 1.5-0.9-0.3-2.8 0.4-4.2 1.5-1.4 1.2-3.6 2.4-5 2.6-1.4 0.3-5 1.3-8 2.1-3.3 1-9.1 1.6-14.5 1.5-4.9 0-12.4-0.8-16.5-1.6-4.1-0.9-10.7-2.8-14.5-4.3-3.8-1.5-10.6-4.7-15-7.2-4.6-2.7-11.2-7.7-15.7-12.1-4.2-4.1-9.1-9.6-10.8-12.3-1.6-2.6-3-4.9-3-5.2 0-0.3-1-2.2-2.3-4.2-1.2-2.1-2.8-5.4-3.4-7.3-0.7-1.9-1.3-4.4-1.3-5.5 0-1.1-0.4-2.5-0.9-3-0.6-0.5-1.2-2.6-1.5-4.5-0.2-1.9-1-6.9-1.6-11-0.8-5.5-0.8-9.9 0-16.5 0.6-5 1.8-11.3 2.7-14 0.8-2.8 2.4-7 3.5-9.5 1.1-2.5 2.4-5.2 2.9-6 0.5-0.8 1.5-2.6 2.2-4 0.6-1.4 3.5-5.6 6.4-9.5 2.9-3.9 6.3-7.9 7.5-9.1 1.3-1.2 5.2-4.3 8.8-7 3.6-2.8 9.2-6.3 12.5-7.8 3.3-1.6 7.3-3.4 9-4.2 1.7-0.7 7.1-2.3 12-3.5 7.6-1.8 10.8-2.1 21-1.6 7.1 0.3 14.8 1.4 19 2.5 3.8 1.1 8.3 2.7 10 3.6 1.7 0.9 3.4 1.6 4 1.6 0.6 0 4.6 2.3 9 5.2 4.4 2.8 10.2 6.9 13 9.1 2.7 2.1 5.4 4.7 5.9 5.6 0.5 0.9 1.4 1.9 2 2.3 0.6 0.4 2-0.1 3.1-1.1 1.1-1 6.3-4.3 11.5-7.3 5.2-3.1 16.7-9.9 25.5-15.3 8.8-5.4 17.6-10.6 19.5-11.7 1.9-1.1 5.3-3.3 7.5-4.8 2.2-1.5 8.7-5.6 14.5-9.2 5.8-3.6 14.6-9 19.5-12.1 4.9-3.1 14.3-8.9 20.8-12.9 8.7-5.4 11.6-7.7 11.2-8.8-0.4-0.8-0.7-2-0.8-2.5-0.1-0.5-0.6-1.2-1-1.5-0.4-0.3-1-2.3-1.2-4.5-0.1-2.2-1.3-7.8-2.5-12.5-1.2-4.7-2.2-10.1-2.4-12-0.1-1.9-0.8-4.6-1.6-6-1.2-2.1-1.4-5.8-0.9-21 0.3-10.2 1.2-21.9 1.8-26 0.7-4.1 2.1-9.3 3.2-11.5 1-2.2 2.6-7.3 3.6-11.3 1-4 2.1-7.2 2.5-7.2 0.5 0 0.8-0.7 0.8-1.5 0-0.8-0.8-1.8-1.8-2.1-0.9-0.3-5.8-3-10.7-6.1-4.9-3.1-11.4-7.1-14.3-9-2.8-1.8-5.4-3.3-5.7-3.3-0.3 0-2.6-1.6-5.3-3.5-2.6-1.9-5-3.4-5.5-3.5-0.4 0-2.6-1.3-5-2.9-2.3-1.5-6.7-4.4-9.7-6.3-3-2-8-5.1-11-7.1-3-1.9-9-5.5-13.3-7.8-4.3-2.4-9.5-5.4-11.5-6.6-2-1.3-4.6-2.7-5.7-3.1-1.1-0.5-3.8-2.1-6-3.6-2.2-1.4-4.4-3-5-3.4-0.6-0.5-2.9-1.8-5.3-3-2.3-1.2-4.4-2.6-4.7-3.2-0.3-0.6-2.2-1.9-4.3-3-2-1.1-4.9-3-9.1-6.5l-5.8 5.7c-3.2 3.2-8.2 7.3-11.1 9.3-2.8 1.9-5.5 3.3-6 3-0.4-0.2-1.5 0-2.5 0.5-0.9 0.6-1.5 1.3-1.3 1.7 0.3 0.5-2.3 2-5.7 3.5-3.4 1.5-8.9 3.7-12.2 4.8-3.3 1.1-9.6 2.3-14 2.7-4.4 0.3-11.8 0-16.5-0.6-4.7-0.6-11.2-1.8-14.5-2.6-3.3-0.9-10.5-3.8-16-6.5-8.2-4.1-11.6-6.6-19-13.8-5-4.8-10.4-10.7-12.1-13.2-1.7-2.5-4.5-7.2-6.3-10.5-1.8-3.3-4.1-8.7-5.2-12-1.1-3.3-2.3-8.7-2.7-12-0.4-3.3-0.6-10.9-0.6-17 0.1-6.1 0.7-12.9 1.3-15.3 0.6-2.3 1.5-6 2.1-8.2 0.6-2.2 2-5.9 3.3-8.3 1.2-2.3 3.1-5.5 4.2-7 1.1-1.6 3.9-5.3 6.2-8.3 2.4-3 4.3-5.7 4.3-6.2 0-0.4 1.9-2.5 4.2-4.8 2.4-2.2 6.3-5.7 8.8-7.6 2.5-2 7.9-5.2 12-7.2 4.1-2 8.2-3.6 9.1-3.6 0.8 0 1.9-0.4 2.5-0.8 0.5-0.4 2.5-1.3 4.4-2 1.9-0.6 6.9-1.6 11-2.2 4.1-0.6 10.9-1 15-0.9 4.1 0.1 10.4 0.9 14 1.6 3.6 0.8 8.4 2.3 10.7 3.3 2.4 1.1 4.3 1.7 4.3 1.2-0.1-0.4 0.7 0 1.7 0.9 1 0.9 3.8 2.7 6.3 3.9 2.5 1.3 7.2 4.3 10.5 6.8 3.3 2.4 8.4 7 11.2 10.1 2.9 3.1 5.3 6 5.3 6.6-0.1 0.6 0.9 1.9 2 3 1.1 1.1 2 2.4 2 3 0 0.6 0.9 1.9 2 3 1.1 1.1 1.8 2.2 1.5 2.5-0.3 0.3 1.1 3.4 3.1 7 2 3.6 3.7 8.1 3.9 10 0.2 1.9 1.3 8 2.5 13.5 1.3 6.1 1.9 11.2 1.5 13-0.4 1.6-1.1 3.4-1.5 4-0.4 0.6-1.1 3.2-1.5 6-0.5 2.7-0.7 5.4-0.6 6 0.1 0.6-1 4.8-2.4 9.5-1.5 4.7-2.9 9.1-3.1 9.8-0.2 0.6-0.1 1 0.3 0.8 0.5-0.2 2 0.4 3.5 1.3 1.5 0.9 6.7 4.3 11.6 7.6 4.9 3.3 12.6 8.2 17.1 11 4.5 2.7 11.1 6.9 14.6 9.2 3.6 2.4 6.7 4 7 3.5 0.3-0.4 0.5-0.1 0.5 0.5 0 0.7 0.8 1.5 1.7 1.8 1 0.2 2.7 1 3.8 1.7 1 0.7 2.6 1.9 3.5 2.7 0.8 0.7 3.3 2.3 5.5 3.4 2.2 1.1 5.3 3 7 4.3 1.7 1.3 3.3 2.4 3.7 2.4 0.5 0 6.2 3.4 12.8 7.5 6.6 4.1 12.2 7.5 12.5 7.5 0.3 0 3 1.7 6.2 3.7 3.1 2.1 9 5.6 20.8 11.9l4.1-4.1c2.3-2.2 6.4-6.7 9.1-10 2.7-3.3 6-7.2 7.4-8.6 1.3-1.4 5.6-5 9.4-8 3.8-3.1 10.6-7.8 15-10.6 4.4-2.7 11.8-6.8 16.5-9 4.7-2.3 12.6-5.2 17.5-6.6 4.9-1.4 11.5-3 14.5-3.7 3-0.6 7.9-1.7 16-4l-0.3-78.3c-0.2-77.5-0.2-78.3-2.2-78.5-1.1 0-6.1-1.5-11-3.3-4.9-1.7-11.7-4.5-15-6.2-3.3-1.6-9.4-5.4-13.5-8.2-4.1-2.9-9.6-7.5-12.1-10.1-2.5-2.7-6.1-7.4-8-10.4-1.9-3-3.9-6.6-4.6-8-0.6-1.4-1.9-4.3-2.8-6.5-1-2.2-2.4-6.5-3.2-9.5-0.8-3-1.7-8-2-11-0.3-3-0.5-9.6-0.4-14.5 0.1-4.9 0.4-10.3 0.5-12 0.2-1.7 0.9-4.2 1.5-5.8 0.6-1.5 1.1-3.3 1.1-4 0-0.6 1.1-3.3 2.5-6 1.4-2.6 2.5-5.1 2.5-5.7 0-0.6 1.1-2.7 2.5-4.8 1.3-2 3.2-4.8 4.2-6.1 1-1.3 4.1-4.9 6.9-8 2.7-3.1 5.2-6.1 5.5-6.7 0.2-0.6 3.6-3.5 7.4-6.4 3.8-3 10.4-6.9 14.5-8.8 4.1-1.9 11.6-4.5 16.5-5.8 6.5-1.7 11.9-2.3 19.5-2.4zm-13.5 19.4c-5.4 1-10.6 2.8-16 5.6-4.4 2.3-10.3 5.9-13 7.9-2.8 2.1-7.7 7.5-11 12-3.3 4.5-6 8.5-6 8.9-0.1 0.4-0.9 2.3-1.8 4.2-1 1.9-1.9 4.2-2.1 5-0.1 0.8-0.9 2.8-1.6 4.5-0.7 1.8-1.2 7.8-1.3 15 0 6.6 0.5 14.7 1.1 18 0.7 3.3 2.7 9.2 4.5 13 1.8 3.8 5 9.2 7.1 12 2.1 2.7 5.3 6.7 7.2 8.7 1.9 2.1 5.3 5 7.6 6.5 2.4 1.5 6.5 3.8 9.3 5 2.7 1.3 6.6 2.7 8.5 3 1.9 0.4 3.7 0.8 4 0.8 0.3 0.1 2.5 0.7 5 1.4 3 0.9 7.9 1.2 15 0.8 7.4-0.4 12.8-1.3 18.5-3.1 4.4-1.5 10.7-4.2 14-6.1 3.3-1.8 8.1-5.5 10.6-8.2 2.6-2.6 6.2-7.1 8-9.8 1.9-2.8 4.4-6.8 5.6-9 1.2-2.2 2.1-4.2 2.2-4.5 0-0.3 0.5-1.8 1.1-3.5 0.6-1.7 1.8-5.7 2.7-9 1-4.1 1.3-8.3 0.9-13.5-0.3-4.1-0.6-8.2-0.7-9 0-0.8-0.7-3.2-1.5-5.3-0.8-2-1.1-3.7-0.7-3.7 0.5 0 0.2-0.5-0.5-1.2-0.7-0.7-1.2-2.2-1.2-3.3 0-1.1-0.8-3.6-1.8-5.5-1-1.9-3.1-5.8-4.6-8.5-1.6-2.8-4.9-7.2-7.5-9.8-2.5-2.7-6.9-6.4-9.6-8.2-2.8-1.9-8.8-5-13.5-7-4.8-2.1-11.6-4.1-15.5-4.6-3.8-0.5-8.6-1.2-10.5-1.5-1.9-0.3-3.7-0.3-4 0-0.3 0.3-4.1 1.2-8.5 2zm322 186.9c-1.7 0.8-4.6 1.8-6.5 2.1-1.9 0.3-3.7 1-4 1.5-0.3 0.5-3 2.7-6.1 4.8-3.2 2.1-8.4 6.3-11.8 9.3-3.4 3-5.9 5.7-5.6 6 0.2 0.3-0.8 2.3-2.4 4.5-1.5 2.2-3.7 6.1-4.9 8.7-1.2 2.7-2 5.2-1.7 5.8 0.3 0.6 0.1 1-0.5 1-0.6 0-1.4 1.5-2 3.2-0.5 1.8-1.1 7.1-1.1 11.8-0.1 4.7 0 11.4 0.3 15 0.3 3.6 1.3 8.7 2.3 11.5 1 2.7 3.5 8.6 5.7 13 2.2 4.5 6 10.1 8.6 12.8 2.6 2.7 7.9 7 11.7 9.6 3.8 2.6 9.7 5.7 13 7 3.3 1.2 9.4 2.7 13.5 3.3 4.1 0.6 10.4 1.1 14 1 3.6-0.1 7.8-0.6 9.5-1.1 1.7-0.6 4.3-1.3 6-1.5 1.7-0.3 4.3-1.2 6-2 1.7-0.9 3.6-1.6 4.2-1.6 0.7 0 3.9-1.5 7-3.4 3.2-1.9 7.4-4.9 9.3-6.8 1.9-1.9 5.1-5.4 7.1-7.8 2.1-2.5 5.5-8.1 7.7-12.5 2.3-4.4 4.8-10.7 5.7-14 0.9-3.6 1.6-10 1.5-16 0-5.5-0.4-10.4-0.9-11-0.5-0.6-0.8-1.4-0.5-2 0.3-0.6-0.1-2.4-0.7-4-0.7-1.6-1.1-3.6-1.1-4.3 0.1-0.6-0.1-1.2-0.6-1.2-0.4 0-0.7-0.6-0.8-1.3 0-0.6-0.7-2.7-1.5-4.5-0.8-1.8-1.7-3.3-2.2-3.2-0.4 0-0.7-0.7-0.7-1.5 0-0.8-1-3.4-2.3-5.6-1.2-2.3-4.8-6.8-8-10-3.1-3.3-6.1-5.9-6.7-5.9-0.6 0-1.1 0.1-1.3 0.2-0.2 0.2-1.7-0.8-3.3-2.2-1.6-1.4-5.2-3.5-7.9-4.7-2.8-1.2-7.4-2.9-10.3-3.7-2.8-0.9-8.7-1.9-13-2.2-4.2-0.3-9.3-0.6-11.2-0.8-1.9-0.1-5.1 0.1-7 0.5-1.9 0.3-4.8 1.3-6.5 2.2zm-658.8 0.6c-0.4 0-0.9 0.1-1.2 0.1-0.3 0-0.8 0.1-1.3 0.3-0.4 0.1-2.3 0.9-4.2 1.7-1.9 0.7-6.7 3.5-10.5 6.1-3.8 2.6-8.6 6.5-10.5 8.7-1.9 2.2-4.7 5.8-6.3 7.9-1.5 2.1-2.7 4.2-2.7 4.8 0 0.6-0.9 3-2.1 5.5-1.2 2.5-2.2 4.9-2.3 5.5-0.1 0.6-0.5 1.4-0.8 2-0.4 0.6-1.3 5.1-2.1 10-0.9 4.9-1.3 11.2-1 14 0.2 2.7 0.7 5.7 1 6.5 0.3 0.8 0.7 3.4 0.9 5.7 0.2 2.4 1.8 7.8 3.6 12 1.7 4.3 5.7 11.1 8.7 15.2 3.1 4.1 6.7 8.2 8.1 9.3 1.4 1 3.8 2.8 5.4 4.1 1.7 1.2 5.5 3.4 8.5 4.8 3.1 1.5 5.9 2.5 6.3 2.3 0.5-0.2 0.8 0 0.8 0.6 0 0.6 2.1 1.4 4.7 1.8 2.7 0.5 8 1.1 11.8 1.3 3.8 0.2 9.5 0.3 12.5 0.2 3 0 8.4-0.8 12-1.8 3.6-0.9 9.9-3.3 14-5.3 5.4-2.7 9.6-5.8 15-11.2 6.1-6 8.5-9.4 12.3-17 2.5-5.2 5.3-12.2 6-15.5 0.8-3.6 1.3-10.5 1.2-17-0.1-6.5-0.7-12.2-1.5-14-0.8-1.6-1.5-4.1-1.6-5.5-0.2-1.4-1.3-4.5-2.6-7-1.2-2.5-4.6-8.2-7.5-12.8-2.9-4.5-5.7-8.2-6.3-8.2-0.6 0-3.6-2-6.8-4.4-3.1-2.4-7.5-5.3-9.7-6.4-2.2-1.1-6.9-3-10.5-4.3-5.4-1.9-9.1-2.3-21.5-2.6-12-0.4-15.4-0.1-17 1-1.1 0.8-2.3 1.5-2.8 1.6zm318.3 142.7c-1.9 0.8-4.2 1.6-5.2 1.7-0.9 0.1-2 0.5-2.5 0.9-0.4 0.4-1.4 0.5-2.1 0.2-0.6-0.2-1.2-0.1-1.2 0.4 0.1 0.4-1.2 1.3-2.7 2-1.5 0.7-3.9 1.5-5.3 1.7-1.4 0.3-2.9 1.3-3.5 2.2-0.6 0.9-1.6 1.3-2.3 1-0.6-0.4-1.4 0-1.7 0.8-0.3 0.8-0.8 1.3-1.3 1-0.4-0.2-3 1-5.7 2.7-2.8 1.7-7 4.8-9.5 6.9-2.5 2.1-4.7 3.6-5 3.3-0.3-0.2-3.1 2.6-6.2 6.3-3.1 3.7-7.3 8.4-9.2 10.3-2 1.9-3.6 4.1-3.6 4.8 0 0.6-1.8 3.8-4 7-2.2 3.1-4 6-4 6.5 0 0.4-1.6 3.2-3.5 6.2-1.9 3-3.8 6.7-4.1 8.3-0.4 1.5-1.3 3.4-2.1 4.2-0.7 0.8-1.6 3.8-1.9 6.5-0.3 2.8-0.9 5.5-1.4 6-0.4 0.5-1.1 3.3-1.5 6-0.4 2.8-0.9 10.9-1.1 18-0.4 9.7-0.1 14.5 1.1 19 0.8 3.3 1.5 7.7 1.5 9.8 0 2 0.4 3.9 1 4.2 0.6 0.3 1.3 2.6 1.6 5.2 0.4 2.7 1 5.3 1.4 5.8 0.4 0.5 1.3 2.8 2 5 0.7 2.2 1.8 4.6 2.4 5.3 0.6 0.8 0.7 1.3 0.1 1.2-0.6 0-0.3 0.7 0.6 1.7 0.9 1 2.3 3.4 3.2 5.3 1 1.9 3 5.6 4.5 8.2 1.5 2.6 4.2 6.3 5.9 8.3 1.8 1.9 3.3 3.8 3.3 4.2 0 0.5 3.5 4.2 7.8 8.3 4.2 4.1 10.6 9.6 14.2 12.1 3.6 2.5 9.9 6.4 14 8.6 4.1 2.3 12.7 5.8 19 7.8 6.6 2.2 15.3 4.2 20.5 4.8 4.9 0.5 13.9 1.1 20 1.2 8.5 0.2 13.5-0.3 22-2.1 6.1-1.3 13.9-3.3 17.5-4.5 3.6-1.1 10.3-4 15-6.2 4.7-2.3 11.7-6.6 15.5-9.6 3.8-2.9 10.7-9 15.3-13.5 4.5-4.4 8.2-8.3 8.2-8.6 0-0.3 2.3-4.1 5.2-8.5 2.9-4.5 6.9-11.2 9-15 2-3.9 5.1-11.3 6.8-16.5 1.8-5.2 3.6-12 4.1-15 0.6-3 1.2-9.8 1.6-15 0.3-6.4 0-13.2-1.2-21-0.9-6.3-1.9-12-2.3-12.5-0.3-0.5-0.7-2.2-0.9-3.8-0.2-1.5-1.5-6.2-2.9-10.5-1.4-4.2-4.8-12-7.5-17.2-2.6-5.2-6.5-11.8-8.6-14.6-2.1-2.8-4.8-6.2-6-7.5-1.2-1.3-3.9-4.4-6-6.8-2.1-2.4-7-6.7-10.8-9.6-3.8-2.8-10.4-7.3-14.5-9.8-4.1-2.5-10.4-5.9-14-7.6-3.6-1.6-8.1-3.3-10-3.7-1.9-0.4-3.9-1-4.5-1.5-0.6-0.4-3.9-1.2-7.5-1.8-3.6-0.5-11.9-1.2-18.5-1.5-6.6-0.2-17.2 0-23.5 0.5-6.3 0.5-13.1 1.6-15 2.5zm348.9 249.9c-7.1 0.2-11 0.9-15.9 2.9-3.6 1.4-6.8 3.2-7.2 4.1-0.4 0.8-1.6 1.5-2.7 1.5-1.1 0-3.5 1.5-5.4 3.2-1.8 1.8-3.7 4.1-4 5-0.4 1.1-1.2 1.5-1.9 1q-1.3-0.7-0.5 0.5c0.4 0.7 0.2 1.6-0.5 1.9-0.6 0.3-2.8 2.9-4.8 5.7-2 2.9-5.1 8.1-6.8 11.7-1.8 3.6-3.8 9.4-4.5 13-0.8 3.6-1.3 11-1.2 16.5 0.2 5.5 0.8 12.7 1.6 16 0.7 3.3 3.3 10 5.8 14.9 3.3 6.4 6.6 10.9 11.6 16 3.8 3.9 8.1 7.8 9.5 8.5 1.4 0.8 4.1 2.2 6 3.3 1.9 1 4.2 2 5 2.2 0.8 0.1 2.2 0.6 3 0.9 0.8 0.3 3.5 1.3 6 2.2 3.6 1.3 7.1 1.6 18 1.2 7.4-0.2 14.4-0.7 15.5-1 1.1-0.4 4.5-1.3 7.5-2 3-0.8 8-2.7 11-4.3 3-1.6 8.8-6 12.8-9.9 4-3.9 7.3-7.3 7.2-7.8 0-0.4 1.3-2.6 2.9-5 1.6-2.3 3.7-6.2 4.6-8.7 0.9-2.5 2.1-5.4 2.6-6.5 0.4-1.1 1.3-3.8 1.9-6 0.5-2.2 1-8.6 1-14.3 0-5.8-0.4-10.4-1-10.7-0.6-0.3-0.8-1.1-0.5-1.8 0.3-0.6 0.1-2.6-0.6-4.2-0.6-1.6-1.3-3.9-1.4-5-0.1-1.1-1.6-4.9-3.3-8.5-1.7-3.6-4.8-8.8-6.9-11.6-2.1-2.8-6.5-7.5-9.8-10.4-3.3-2.9-9.6-7-14-9.1-4.4-2.2-10.3-4.3-13-4.8-2.8-0.6-7.8-1.2-11.2-1.5-3.3-0.3-6.3-0.3-6.5 0-0.3 0.3-4.7 0.7-9.9 0.9zm-662.9 0.8c-1.9 0.2-5 1.1-6.8 2-1.7 0.9-3.6 1.5-4.2 1.2-0.6-0.3-1.8 0.3-2.8 1.3-0.9 1-4.1 3.4-7.1 5.3-3 1.9-7.7 5.9-10.5 8.9-2.8 3.1-6.8 8.7-8.8 12.5-2 3.9-3.9 7.9-4 9-0.2 1.1-0.9 2.9-1.5 4-0.6 1.1-1.7 4.9-2.3 8.5-0.6 3.6-1 9.9-0.7 14 0.2 4.1 0.7 10 1.1 13 0.4 3 1.9 8.2 3.2 11.5 1.4 3.3 3.7 8 5.1 10.5 1.5 2.5 5.4 7.4 8.7 10.9 3.4 3.5 8.3 7.8 11.1 9.6 2.7 1.7 6.1 3.6 7.5 4 1.4 0.5 2.7 1 3 1 0.3 0.1 2.5 0.7 5 1.5 2.5 0.7 5.2 1.5 6 1.8 0.8 0.3 6.4 0.7 12.5 0.9 9 0.4 12.6 0.1 19.5-1.7 4.7-1.1 11.7-3.6 15.5-5.5 3.8-1.8 9.2-5.3 12-7.8 2.7-2.4 6.8-7 9-10.3 2.2-3.2 5-8.2 6.3-10.9 1.3-2.8 2.8-5.9 3.3-7 0.6-1.1 1.1-2.7 1.3-3.5 0.2-0.8 0.7-2.4 1.2-3.5 0.5-1.1 0.9-7.9 0.9-15.1 0-9-0.4-13.5-1.2-14.5-0.7-0.8-1-1.6-0.8-1.9 0.3-0.3-0.9-4.3-2.6-9-1.8-4.7-4.1-9.9-5.3-11.5-1.1-1.6-2.8-3.9-3.6-5-0.8-1.1-4.3-4.8-7.8-8.3-3.4-3.4-6.8-6.2-7.5-6.2-0.6 0-3-1.4-5.2-3-2.2-1.7-5.2-3-6.8-3-1.5 0-2.7-0.5-2.7-1 0-0.5-2.4-1.6-5.3-2.4-3.4-1-9.6-1.4-18-1.4-7 0.1-12.8 0.3-13 0.4-0.1 0.2-1.8 0.4-3.7 0.7zm319 189.7c-3.6 1.6-8.4 4.2-10.7 5.7-2.3 1.6-6.5 5.1-9.5 7.9-2.9 2.8-7.2 8.2-9.5 12-2.2 3.8-5.3 10.3-6.8 14.4-2.1 6.1-2.6 9.4-2.7 17.5-0.1 5.5 0 11.6 0 13.5 0.1 1.9 1 6.1 1.9 9.3 1 3.2 2.1 5.7 2.5 5.7 0.5 0 0.6 0.5 0.3 1-0.3 0.5 0.6 3.1 1.9 5.8 1.4 2.6 4.4 7.6 6.8 11.1 2.4 3.6 6.9 8.4 10.3 11 3.3 2.6 8.9 6 12.5 7.5 3.6 1.6 10.8 3.8 16 4.8 6.7 1.4 11.6 1.8 16.5 1.4 3.8-0.3 8.3-0.8 10-1.1 1.7-0.3 5-1.1 7.5-1.6 2.5-0.6 7.7-2.5 11.5-4.3 3.8-1.9 8.6-4.6 10.6-6.2 2-1.6 5.7-5.4 8.1-8.4 2.5-3 6.4-9.1 8.6-13.5 2.2-4.4 4.8-10.5 5.8-13.5 1.3-4.1 1.8-8.5 1.8-17 0-7.4-0.5-12.6-1.4-14.5-0.7-1.6-1.4-4.4-1.6-6-0.1-1.6-0.7-3.1-1.3-3.2-0.6-0.2-0.9-0.8-0.6-1.3 0.3-0.5 0.1-1.9-0.5-3-0.6-1.1-1.4-2.9-2-4-0.6-1.1-1.6-3-2.3-4.2-0.6-1.3-2.5-4.1-4.1-6.3-1.6-2.2-4.3-5.5-6-7.3-1.7-1.8-5.6-5-8.6-7-3-2.1-7.5-4.7-10-5.9-2.5-1.2-5.8-2.5-7.5-2.9-1.7-0.4-3.6-1.2-4.4-1.8-0.9-0.7-7.3-1.2-16.5-1.3-11.7-0.2-15.7 0.1-17.6 1.2-1.4 0.8-5.4 2.8-9 4.5z"/>
		<path id="Stroke" fill-rule="evenodd" class="s1" d="m2782 116c7.6 0 12.9 0.6 19 2.1 4.7 1.2 11.4 3.6 15 5.3 3.6 1.8 9.2 5 12.5 7.3 3.3 2.2 9.2 7.4 13 11.4 3.9 4.1 9.1 10.3 11.5 13.8 2.5 3.5 4.8 6.9 5.2 7.5 0.3 0.6 1.6 3.3 2.9 6.1 1.2 2.7 3.1 9.3 4.2 14.5 1.3 6.1 1.9 12.5 1.8 18-0.2 4.7-0.6 8.9-1.1 9.5-0.4 0.6-1.1 3.2-1.4 6-0.4 2.7-1.4 7.3-2.3 10-0.9 2.7-2.3 6.6-3.2 8.5-0.9 1.9-3.7 6.7-6.2 10.5-2.6 3.8-6.8 8.8-9.5 11-2.7 2.2-6.7 5.8-8.9 8.1-2.2 2.2-7.2 5.8-11 7.9-3.8 2.1-7.3 4.4-7.7 4.9-0.4 0.6-2 1.1-3.5 1.2-1.5 0-4.1 1-5.8 2.2-1.7 1.2-4.8 2.5-7 2.9-2.2 0.4-4.3 0.8-4.8 1-0.4 0.2-1.1 0.3-1.7 0.3-0.6 0-1 1-1.1 2.2 0 1.3-0.3 33.4-0.6 71.3-0.2 37.9-0.2 72.1 0.2 76 0.5 6.9 0.6 7 4.3 8.7 2 1 5.5 2.2 7.7 2.7 2.2 0.5 7.6 1.5 12 2.1 4.4 0.7 8.9 1.7 10 2.3 1.1 0.6 2.4 1 3 0.9 0.6-0.1 1.9 0.3 3 1.1 1.1 0.7 4.3 2.2 7 3.2 2.8 1 6.8 2.9 9 4.2 2.2 1.3 5.6 3.4 7.6 4.6 2 1.2 8.2 5.8 13.9 10.2 5.7 4.4 13.9 12.1 18.3 17 4.4 4.9 8.8 10.5 9.8 12.3 1.1 1.7 2.5 3.2 3.1 3.2 0.7 0 8.3-4.1 16.8-9.1 8.5-5.1 18.4-11 22-13.2 3.6-2.2 8.1-5 10-6.3 1.9-1.2 10-6.1 18-11 8-4.8 16.3-9.8 18.5-11.1 2.2-1.3 8.5-5.3 14-8.9 5.5-3.5 10.7-6.7 11.5-7.1 0.8-0.3 5.8-3.4 11-6.8 7.1-4.7 9.6-6.9 10-8.9 0.3-1.4 0.2-2.6-0.3-2.6-0.4 0-0.6-0.3-0.5-0.7 0.1-0.5-0.5-3-1.4-5.8-0.9-2.7-2.3-8.1-3.1-12-1-4.2-1.6-11.7-1.5-19 0-8.2 0.4-12.9 1.4-14.8 0.8-1.5 1.4-3.6 1.4-4.7 0-1.1 1.1-4.4 2.4-7.2 1.3-2.9 2.7-6 3.1-6.8 0.3-0.8 1.6-3.1 2.8-5.1 1.2-2 4-6.3 6.2-9.5 2.2-3.3 7.1-9.1 11-13 5.5-5.5 9-8 16-11.4 4.9-2.4 12.4-5.4 16.5-6.7 4.1-1.3 12.2-2.9 18-3.5 8.1-0.9 12.3-0.9 18.5 0 4.4 0.7 11.2 2.4 15 3.9 3.8 1.4 7.2 2.9 7.5 3.3 0.3 0.3 2.3 1.4 4.5 2.5 2.2 1 6.7 3.8 10 6.3 3.3 2.5 8.5 6.8 11.5 9.6 3 2.8 6.5 6.6 7.7 8.4 1.3 1.7 2.3 3.5 2.3 4 0 0.4 1.4 3 3.2 5.7 1.8 2.8 3.3 5.4 3.4 6 0 0.6 0.6 2.4 1.3 4 0.7 1.6 1.2 3 1.1 3-0.1 0 0.3 1.1 0.8 2.5 0.5 1.4 1.3 4.3 1.6 6.5 0.4 2.2 1.2 5.4 2 7 0.9 2.2 1.1 5.3 0.5 12-0.4 4.9-1.2 11-1.8 13.5-0.5 2.5-1.3 5.9-1.6 7.5-0.4 1.6-1.3 4.5-2.1 6.3-0.8 1.7-1.4 3.4-1.4 3.7 0 0.3-1.3 3.3-2.9 6.8-1.7 3.4-3.7 6.9-4.6 7.7-0.9 0.8-1.6 1.9-1.5 2.5 0 0.6-3.5 4.4-7.8 8.5-4.4 4.1-10.6 9.6-13.8 12.1-3.3 2.5-7.9 5.6-10.4 6.9-2.5 1.2-4.7 2.7-5 3.1-0.3 0.5-4.3 2-9 3.4-4.7 1.4-12.3 2.7-17 3-5.4 0.4-11.6 0.1-17-0.8-4.7-0.8-10.8-2.1-13.5-3-2.8-0.8-7.7-2.8-11-4.4-3.3-1.7-8.3-4.3-11-5.8-2.8-1.5-8.2-5.9-19-16.7l-5 3.2c-2.8 1.9-5.7 3.4-6.5 3.6-0.8 0.1-1.8 0.3-2.2 0.3-0.4 0.1-1.4 0.9-2.4 1.9-1 0.9-2.5 1.8-3.3 1.9-0.9 0.2-2.7 1.1-4.1 2-1.4 1-6.1 3.9-10.5 6.5-4.4 2.7-8.2 4.8-8.5 4.8-0.3 0-2 1.4-3.8 3.2-1.8 1.8-3.3 2.9-3.2 2.3 0-0.6-1.1 0.1-2.5 1.5-1.4 1.4-2.5 2.1-2.5 1.5 0-0.6-0.8 0-1.8 1.2-0.9 1.2-2.3 2.3-3.1 2.5-0.7 0.2-2.5 1.3-4 2.6-1.4 1.3-4.6 3.4-7.1 4.7-2.5 1.3-4.7 2.2-5 1.9-0.3-0.2-1.3 0.7-2.3 2.1-0.9 1.4-2.1 2.5-2.7 2.5-0.6 0-2.9 1.2-5.3 2.7-2.3 1.4-4.8 2.7-5.5 2.7-0.6 0.1-1.2 0.4-1.2 0.9 0 0.4-1.2 1.4-2.8 2.2-1.5 0.9-4 2.4-5.7 3.5-1.7 1.1-4.6 2.9-6.5 4-1.9 1.1-6.7 4.1-10.5 6.5-3.8 2.5-8.1 5.1-9.5 5.8-1.4 0.6-3.2 1.9-4.1 2.7-1.6 1.4-1.6 2 0.1 8 0.9 3.6 2.9 11.5 4.4 17.5 1.5 6 3.2 13 3.8 15.5 0.6 2.5 1.2 10.6 1.5 18 0.4 10.9 0.1 15.3-1.5 23-1 5.2-2.4 10.4-3 11.5-0.6 1.1-0.9 2.2-0.7 2.5 0.2 0.3-0.9 5.7-2.6 12-1.6 6.3-2.9 12.3-2.9 13.3 0 0.9 1.2 2.3 2.7 3 1.6 0.6 5.6 3.1 9 5.5 3.5 2.3 6.6 4.2 7 4.2 0.5 0 2.1 1.1 3.8 2.4 1.7 1.3 4.8 3.3 7 4.5 2.2 1.2 6.9 3.9 10.5 6.1 3.6 2.2 7.2 4.5 8 5 0.8 0.6 2.5 1.5 3.7 2 1.3 0.6 2.5 1.3 2.7 1.8 0.2 0.4 5 3.5 10.7 7 5.7 3.5 11.3 6.9 12.4 7.5 1.1 0.7 4.3 2.7 7.2 4.5 2.9 1.7 5.5 3.2 5.8 3.2 0.3 0 3.5 1.9 7.2 4.2 3.8 2.3 7.7 4.9 8.8 5.8 1.1 1 4.2 3 7 4.5 2.7 1.5 5.7 3.3 6.5 4.1 0.8 0.7 2.3 1.4 3.2 1.4 1 0 2.9 1.1 4.3 2.5 1.7 1.7 3 2.3 4.2 1.8 1-0.4 6.7-4.7 12.8-9.5 6.1-4.8 14.2-10.3 18-12.2 3.8-1.8 9.5-4.2 12.5-5.1 3.9-1.3 9.7-1.9 19.5-2.1 10.2-0.3 15.6 0 20 1.2 3.3 0.8 6.7 1.8 7.5 2.1 0.8 0.3 2.2 0.7 3 0.9 0.8 0.2 3.5 1.3 6 2.5 2.5 1.2 5.4 2.6 6.5 3.2 1.1 0.5 3.5 1.8 5.2 2.9 1.8 1 5.2 3.5 7.5 5.5 2.4 2.1 5.8 5.4 7.7 7.3 1.9 1.9 6 6.6 9.1 10.5 3.2 3.9 6.9 9.5 8.3 12.5 1.4 3 3.3 7.8 4.2 10.5 0.9 2.7 2.1 7.5 2.6 10.5 0.6 3 0.9 10.7 0.9 17-0.1 6.3-0.5 12-1 12.5-0.4 0.5-1 2.8-1.3 5-0.3 2.2-0.7 4.9-1 6-0.2 1.1-2.3 5.8-4.5 10.5-2.2 4.7-6 11.2-8.5 14.5-2.4 3.3-5.8 7.1-7.4 8.5-1.6 1.4-3.5 3.5-4.1 4.8-0.7 1.2-1.6 2-2.2 1.7-0.6-0.3-1.4 0.4-2 1.5-0.6 1.1-1.3 1.8-1.8 1.5-0.4-0.3-1.4 0.1-2.2 0.9-0.8 0.8-3.8 2.6-6.5 4.1-2.8 1.6-5.3 3.4-5.8 4.1-0.4 0.8-2.2 1.7-4 2-1.7 0.4-3.6 1-4.2 1.5-0.6 0.4-3.9 1.5-7.5 2.4-3.6 0.9-8.8 2.1-11.5 2.5-2.9 0.5-8.1 0.5-12.5 0-4.1-0.5-11.3-1.8-16-2.9-4.7-1.1-10.1-2.6-12-3.3-1.9-0.7-4.2-1.8-5-2.3-0.8-0.5-3.5-2-6-3.2-2.5-1.3-6.5-3.9-9-5.8-2.5-1.9-6.7-5.4-9.3-7.7-2.6-2.4-6.4-6.8-8.4-9.8-2-3-4.9-8-6.5-11-1.5-3-2.8-6.2-2.8-7 0-0.8-0.9-2.9-2-4.5-1.1-1.6-2-4.1-2-5.5 0-1.4-0.5-3.1-1.2-3.8-1-0.9-1.3-5.7-1.2-17.5 0.1-13.8 0.4-17.3 2.3-23.2 1.2-3.9 2.9-9 3.6-11.5 1.4-4.4 1.3-4.6-1.3-7.3-1.5-1.5-3.3-2.7-4-2.7-0.6 0-1.2-0.3-1.2-0.7 0-0.5-4.3-3.5-9.5-6.8-5.3-3.3-15.1-9.5-21.8-13.9-6.7-4.3-13.8-8.8-15.7-10.1-1.9-1.2-8.7-5.2-15-8.9-6.3-3.7-12.2-7.1-13-7.7-0.8-0.5-3.1-1.7-5-2.7-1.9-0.9-3.7-2-4-2.3-0.3-0.3-6.3-4.4-13.5-9.1-7.2-4.7-15.2-9.4-17.9-10.4-2.7-1-5.4-2.5-6-3.2-0.6-0.7-1.5-1.3-2.1-1.3-0.6 0-1.9 1-3 2.1-1.1 1.1-1.6 2-1 2 0.6 0-1 1.9-3.5 4.3-2.5 2.3-5.7 5.9-7.3 8-1.5 2-3.1 3.7-3.7 3.7-0.5 0-2 1.1-3.4 2.5-1.4 1.4-2.2 2.5-1.8 2.5 0.4 0-0.4 0.8-1.8 1.7-1.4 1-2.9 2.1-3.5 2.5-0.6 0.4-4.7 3.2-9.3 6.3-4.5 3-8.5 5.5-9 5.5-0.4-0.1-1.6 0.9-2.7 2-1.1 1.1-2.5 2.1-3.1 2-0.6 0-2.2 1.1-3.5 2.4-1.3 1.3-5.7 3.8-9.7 5.5-3.9 1.7-8 3.1-9 3.1-1 0-2.2 0.4-2.8 0.9-0.5 0.6-5.2 1.9-10.4 3-5.2 1.1-11.5 2.3-14 2.6-2.5 0.4-5.2 0.8-6 1.1-0.8 0.2-1.6 1.4-1.6 2.6-0.1 1.3-0.2 31.8-0.2 67.8 0 36 0.2 70 0.5 75.5 0.3 5.5 0.9 10.7 1.3 11.5 0.5 0.9 2.4 1.6 4.6 1.8 2.2 0.1 5.5 0.7 7.4 1.3 1.9 0.6 4.7 1.8 6.2 2.5 1.6 0.8 2.8 1.2 2.8 0.9 0-0.3 1.7 0.6 3.7 2 2.1 1.4 4.2 2.6 4.8 2.6 0.6-0.1 4.8 2.9 9.5 6.4 4.7 3.6 10.2 8.6 12.2 11.2 2 2.7 5.7 7.5 8.1 10.8 2.5 3.3 4.8 7.1 5.2 8.5 0.4 1.4 1.9 4.5 3.3 7q2.6 4.5 3.9 13.5c0.8 5 1.5 10.4 1.7 12 0.1 1.6-0.1 6.6-0.6 11-0.4 4.4-1.3 10.3-1.9 13-0.6 2.8-1.3 5.6-1.5 6.3-0.2 0.6-0.4 1.3-0.3 1.5 0.1 0.1-2 4.2-4.6 9.2-2.6 5-5.3 9.7-5.9 10.6-0.6 0.9-4 4.8-7.6 8.6-3.6 3.8-9 9.1-12.1 11.8-3.2 2.8-6.9 6-8.3 7.3-1.4 1.2-3.7 2.2-5.1 2.2-1.4 0-2.5 0.5-2.5 1 0 0.5-4.4 2.3-9.8 3.9-5.3 1.7-12.9 3.2-16.7 3.4-3.8 0.2-11.9-0.2-18-0.9-6.1-0.7-13.7-2.2-17-3.2-3.3-1-9.2-3.5-13-5.4-3.8-1.9-9.3-5.5-12-7.8-2.8-2.4-5.1-4.9-5.3-5.6-0.1-0.8-0.8-1.1-1.5-0.8-0.7 0.3-2.9-1.3-5.2-3.8-2.2-2.4-4.8-5.4-5.8-6.6-0.9-1.2-1.7-2.7-1.7-3.2 0-0.5-0.4-1-1-1-0.6 0-1-0.6-1-1.2 0.1-0.7-0.8-2.5-2-4-1.1-1.6-2-3.7-2-4.8 0-1.1-0.4-2.1-0.8-2.2-0.4-0.2-1.9-3.7-3.1-7.8-1.3-4.1-2.6-9.7-3-12.5-0.3-2.7-0.4-10.6-0.3-17.5 0.2-8.2 0.8-14.2 1.9-17.5 0.9-2.7 2.5-7 3.6-9.5 1-2.5 2.8-6.3 3.9-8.5 1.1-2.2 4.4-7.1 7.3-11 2.9-3.9 8.4-9.9 12.1-13.5 4.8-4.6 9.9-8.1 16.9-11.7 5.5-2.8 13.2-6 17-7.1 3.8-1.1 8.2-2.3 12.5-3.2l-0.5-158.1-4.5 0.1c-2.5 0-6.3-0.3-8.5-0.9-2.2-0.5-7.4-1.8-11.5-2.9-4.1-1.2-9.4-2.8-11.8-3.6-2.3-0.9-7.7-3.3-12-5.4-4.2-2.1-10.2-5.2-13.2-7-3-1.7-8-5.2-11-7.8-3-2.5-6.6-5.2-8-5.9-1.4-0.7-5.4-4.4-9-8.2-3.6-3.8-8.5-9.3-11-12.2-2.5-2.9-5.1-5.9-5.8-6.7-0.6-0.8-1.2-1.9-1.2-2.4 0-0.5-0.4-1-1-1-0.6 0-1.3 0.7-1.8 1.6-0.4 0.9-0.9 1.5-1.2 1.3-0.3-0.1-2.5 0.9-5 2.2-2.5 1.3-4.9 2.4-5.5 2.5-0.6 0.1-1.5 0.2-2.1 0.3-0.6 0-2.2 1.2-3.5 2.5-1.3 1.3-7.3 5.4-13.4 9.1-6.1 3.7-11.7 6.9-12.5 7-0.8 0.2-3.8 1.7-6.5 3.4-2.8 1.7-6.1 3.7-7.5 4.4-1.4 0.6-4.4 2.4-6.8 4-2.3 1.5-4 3.2-3.7 3.7 0.3 0.5-0.1 1.2-0.8 1.5-0.6 0.3-1.9 0.7-2.7 0.8-0.8 0.1-3.2 1.2-5.3 2.5-2 1.2-3.7 2.7-3.7 3.2 0 0.5-1.2 1.5-2.8 2.2-1.5 0.6-3 1.1-3.5 1-0.4-0.1-0.7 0.3-0.7 0.8 0 0.5-1.5 1.8-3.3 2.7-1.7 1-3.8 1.8-4.5 1.8-0.7 0-2.3 1.2-3.6 2.5-1.3 1.4-3 2.5-3.7 2.5-0.8 0.1-4 1.6-7.2 3.5-3.3 1.9-6.9 4.4-8 5.6-1.2 1.1-3.8 3-5.7 4.2-1.9 1.2-4.3 2.8-5.2 3.4-1.7 1.2-1.6 1.6 0.3 7.3 1.1 3.3 2.4 9.1 3 13 0.6 3.9 1.7 9.2 2.5 12 0.8 2.7 1.4 7 1.4 9.5 0 2.5-0.6 6.3-1.4 8.5-0.8 2.2-1.3 4.2-1 4.5 0.2 0.3-0.2 3-1 6-0.8 3-2 7.3-2.6 9.5-0.7 2.2-2.2 5.8-3.3 8-1.2 2.2-2.8 4.8-3.7 5.8-0.8 1-1.2 1.8-0.8 1.7 0.5 0-2.7 3.9-6.9 8.7-5.6 6.4-10.3 10.5-17.3 15.1-5.2 3.4-10.5 7.1-11.8 8.2-1.2 1.1-3 1.8-4 1.5-0.9-0.3-2.8 0.4-4.2 1.5-1.4 1.2-3.6 2.4-5 2.6-1.4 0.3-5 1.3-8 2.1-3.3 1-9.1 1.6-14.5 1.5-4.9 0-12.4-0.8-16.5-1.6-4.1-0.9-10.7-2.8-14.5-4.3-3.8-1.5-10.6-4.7-15-7.2-4.6-2.7-11.2-7.7-15.7-12.1-4.2-4.1-9.1-9.6-10.8-12.3-1.6-2.6-3-4.9-3-5.2 0-0.3-1-2.2-2.3-4.2-1.2-2.1-2.8-5.4-3.4-7.3-0.7-1.9-1.3-4.4-1.3-5.5 0-1.1-0.4-2.5-0.9-3-0.6-0.5-1.2-2.6-1.5-4.5-0.2-1.9-1-6.9-1.6-11-0.8-5.5-0.8-9.9 0-16.5 0.6-5 1.8-11.3 2.7-14 0.8-2.8 2.4-7 3.5-9.5 1.1-2.5 2.4-5.2 2.9-6 0.5-0.8 1.5-2.6 2.2-4 0.6-1.4 3.5-5.6 6.4-9.5 2.9-3.9 6.3-7.9 7.5-9.1 1.3-1.2 5.2-4.3 8.8-7 3.6-2.8 9.2-6.3 12.5-7.8 3.3-1.6 7.3-3.4 9-4.2 1.7-0.7 7.1-2.3 12-3.5 7.6-1.8 10.8-2.1 21-1.6 7.1 0.3 14.8 1.4 19 2.5 3.8 1.1 8.3 2.7 10 3.6 1.7 0.9 3.4 1.6 4 1.6 0.6 0 4.6 2.3 9 5.2 4.4 2.8 10.2 6.9 13 9.1 2.7 2.1 5.4 4.7 5.9 5.6 0.5 0.9 1.4 1.9 2 2.3 0.6 0.4 2-0.1 3.1-1.1 1.1-1 6.3-4.3 11.5-7.3 5.2-3.1 16.7-9.9 25.5-15.3 8.8-5.4 17.6-10.6 19.5-11.7 1.9-1.1 5.3-3.3 7.5-4.8 2.2-1.5 8.7-5.6 14.5-9.2 5.8-3.6 14.6-9 19.5-12.1 4.9-3.1 14.3-8.9 20.8-12.9 8.7-5.4 11.6-7.7 11.2-8.8-0.4-0.8-0.7-2-0.8-2.5-0.1-0.5-0.6-1.2-1-1.5-0.4-0.3-1-2.3-1.2-4.5-0.1-2.2-1.3-7.8-2.5-12.5-1.2-4.7-2.2-10.1-2.4-12-0.1-1.9-0.8-4.6-1.6-6-1.2-2.1-1.4-5.8-0.9-21 0.3-10.2 1.2-21.9 1.8-26 0.7-4.1 2.1-9.3 3.2-11.5 1-2.2 2.6-7.3 3.6-11.3 1-4 2.1-7.2 2.5-7.2 0.5 0 0.8-0.7 0.8-1.5 0-0.8-0.8-1.8-1.8-2.1-0.9-0.3-5.8-3-10.7-6.1-4.9-3.1-11.4-7.1-14.3-9-2.8-1.8-5.4-3.3-5.7-3.3-0.3 0-2.6-1.6-5.3-3.5-2.6-1.9-5-3.4-5.5-3.5-0.4 0-2.6-1.3-5-2.9-2.3-1.5-6.7-4.4-9.7-6.3-3-2-8-5.1-11-7.1-3-1.9-9-5.5-13.3-7.8-4.3-2.4-9.5-5.4-11.5-6.6-2-1.3-4.6-2.7-5.7-3.1-1.1-0.5-3.8-2.1-6-3.6-2.2-1.4-4.4-3-5-3.4-0.6-0.5-2.9-1.8-5.3-3-2.3-1.2-4.4-2.6-4.7-3.2-0.3-0.6-2.2-1.9-4.3-3-2-1.1-4.9-3-9.1-6.5l-5.8 5.7c-3.2 3.2-8.2 7.3-11.1 9.3-2.8 1.9-5.5 3.3-6 3-0.4-0.2-1.5 0-2.5 0.5-0.9 0.6-1.5 1.3-1.3 1.7 0.3 0.5-2.3 2-5.7 3.5-3.4 1.5-8.9 3.7-12.2 4.8-3.3 1.1-9.6 2.3-14 2.7-4.4 0.3-11.8 0-16.5-0.6-4.7-0.6-11.2-1.8-14.5-2.6-3.3-0.9-10.5-3.8-16-6.5-8.2-4.1-11.6-6.6-19-13.8-5-4.8-10.4-10.7-12.1-13.2-1.7-2.5-4.5-7.2-6.3-10.5-1.8-3.3-4.1-8.7-5.2-12-1.1-3.3-2.3-8.7-2.7-12-0.4-3.3-0.6-10.9-0.6-17 0.1-6.1 0.7-12.9 1.3-15.3 0.6-2.3 1.5-6 2.1-8.2 0.6-2.2 2-5.9 3.3-8.3 1.2-2.3 3.1-5.5 4.2-7 1.1-1.6 3.9-5.3 6.2-8.3 2.4-3 4.3-5.7 4.3-6.2 0-0.4 1.9-2.5 4.2-4.8 2.4-2.2 6.3-5.7 8.8-7.6 2.5-2 7.9-5.2 12-7.2 4.1-2 8.2-3.6 9.1-3.6 0.8 0 1.9-0.4 2.5-0.8 0.5-0.4 2.5-1.3 4.4-2 1.9-0.6 6.9-1.6 11-2.2 4.1-0.6 10.9-1 15-0.9 4.1 0.1 10.4 0.9 14 1.6 3.6 0.8 8.4 2.3 10.7 3.3 2.4 1.1 4.3 1.7 4.3 1.2-0.1-0.4 0.7 0 1.7 0.9 1 0.9 3.8 2.7 6.3 3.9 2.5 1.3 7.2 4.3 10.5 6.8 3.3 2.4 8.4 7 11.2 10.1 2.9 3.1 5.3 6 5.3 6.6-0.1 0.6 0.9 1.9 2 3 1.1 1.1 2 2.4 2 3 0 0.6 0.9 1.9 2 3 1.1 1.1 1.8 2.2 1.5 2.5-0.3 0.3 1.1 3.4 3.1 7 2 3.6 3.7 8.1 3.9 10 0.2 1.9 1.3 8 2.5 13.5 1.3 6.1 1.9 11.2 1.5 13-0.4 1.6-1.1 3.4-1.5 4-0.4 0.6-1.1 3.2-1.5 6-0.5 2.7-0.7 5.4-0.6 6 0.1 0.6-1 4.8-2.4 9.5-1.5 4.7-2.9 9.1-3.1 9.8-0.2 0.6-0.1 1 0.3 0.8 0.5-0.2 2 0.4 3.5 1.3 1.5 0.9 6.7 4.3 11.6 7.6 4.9 3.3 12.6 8.2 17.1 11 4.5 2.7 11.1 6.9 14.6 9.2 3.6 2.4 6.7 4 7 3.5 0.3-0.4 0.5-0.1 0.5 0.5 0 0.7 0.8 1.5 1.7 1.8 1 0.2 2.7 1 3.8 1.7 1 0.7 2.6 1.9 3.5 2.7 0.8 0.7 3.3 2.3 5.5 3.4 2.2 1.1 5.3 3 7 4.3 1.7 1.3 3.3 2.4 3.7 2.4 0.5 0 6.2 3.4 12.8 7.5 6.6 4.1 12.2 7.5 12.5 7.5 0.3 0 3 1.7 6.2 3.7 3.1 2.1 9 5.6 20.8 11.9l4.1-4.1c2.3-2.2 6.4-6.7 9.1-10 2.7-3.3 6-7.2 7.4-8.6 1.3-1.4 5.6-5 9.4-8 3.8-3.1 10.6-7.8 15-10.6 4.4-2.7 11.8-6.8 16.5-9 4.7-2.3 12.6-5.2 17.5-6.6 4.9-1.4 11.5-3 14.5-3.7 3-0.6 7.9-1.7 16-4l-0.3-78.3c-0.2-77.5-0.2-78.3-2.2-78.5-1.1 0-6.1-1.5-11-3.3-4.9-1.7-11.7-4.5-15-6.2-3.3-1.6-9.4-5.4-13.5-8.2-4.1-2.9-9.6-7.5-12.1-10.1-2.5-2.7-6.1-7.4-8-10.4-1.9-3-3.9-6.6-4.6-8-0.6-1.4-1.9-4.3-2.8-6.5-1-2.2-2.4-6.5-3.2-9.5-0.8-3-1.7-8-2-11-0.3-3-0.5-9.6-0.4-14.5 0.1-4.9 0.4-10.3 0.5-12 0.2-1.7 0.9-4.2 1.5-5.8 0.6-1.5 1.1-3.3 1.1-4 0-0.6 1.1-3.3 2.5-6 1.4-2.6 2.5-5.1 2.5-5.7 0-0.6 1.1-2.7 2.5-4.8 1.3-2 3.2-4.8 4.2-6.1 1-1.3 4.1-4.9 6.9-8 2.7-3.1 5.2-6.1 5.5-6.7 0.2-0.6 3.6-3.5 7.4-6.4 3.8-3 10.4-6.9 14.5-8.8 4.1-1.9 11.6-4.5 16.5-5.8 6.5-1.7 11.9-2.3 19.5-2.4zm-13.5 19.4c-5.4 1-10.6 2.8-16 5.6-4.4 2.3-10.3 5.9-13 7.9-2.8 2.1-7.7 7.5-11 12-3.3 4.5-6 8.5-6 8.9-0.1 0.4-0.9 2.3-1.8 4.2-1 1.9-1.9 4.2-2.1 5-0.1 0.8-0.9 2.8-1.6 4.5-0.7 1.8-1.2 7.8-1.3 15 0 6.6 0.5 14.7 1.1 18 0.7 3.3 2.7 9.2 4.5 13 1.8 3.8 5 9.2 7.1 12 2.1 2.7 5.3 6.7 7.2 8.7 1.9 2.1 5.3 5 7.6 6.5 2.4 1.5 6.5 3.8 9.3 5 2.7 1.3 6.6 2.7 8.5 3 1.9 0.4 3.7 0.8 4 0.8 0.3 0.1 2.5 0.7 5 1.4 3 0.9 7.9 1.2 15 0.8 7.4-0.4 12.8-1.3 18.5-3.1 4.4-1.5 10.7-4.2 14-6.1 3.3-1.8 8.1-5.5 10.6-8.2 2.6-2.6 6.2-7.1 8-9.8 1.9-2.8 4.4-6.8 5.6-9 1.2-2.2 2.1-4.2 2.2-4.5 0-0.3 0.5-1.8 1.1-3.5 0.6-1.7 1.8-5.7 2.7-9 1-4.1 1.3-8.3 0.9-13.5-0.3-4.1-0.6-8.2-0.7-9 0-0.8-0.7-3.2-1.5-5.3-0.8-2-1.1-3.7-0.7-3.7 0.5 0 0.2-0.5-0.5-1.2-0.7-0.7-1.2-2.2-1.2-3.3 0-1.1-0.8-3.6-1.8-5.5-1-1.9-3.1-5.8-4.6-8.5-1.6-2.8-4.9-7.2-7.5-9.8-2.5-2.7-6.9-6.4-9.6-8.2-2.8-1.9-8.8-5-13.5-7-4.8-2.1-11.6-4.1-15.5-4.6-3.8-0.5-8.6-1.2-10.5-1.5-1.9-0.3-3.7-0.3-4 0-0.3 0.3-4.1 1.2-8.5 2zm322 186.9c-1.7 0.8-4.6 1.8-6.5 2.1-1.9 0.3-3.7 1-4 1.5-0.3 0.5-3 2.7-6.1 4.8-3.2 2.1-8.4 6.3-11.8 9.3-3.4 3-5.9 5.7-5.6 6 0.2 0.3-0.8 2.3-2.4 4.5-1.5 2.2-3.7 6.1-4.9 8.7-1.2 2.7-2 5.2-1.7 5.8 0.3 0.6 0.1 1-0.5 1-0.6 0-1.4 1.5-2 3.2-0.5 1.8-1.1 7.1-1.1 11.8-0.1 4.7 0 11.4 0.3 15 0.3 3.6 1.3 8.7 2.3 11.5 1 2.7 3.5 8.6 5.7 13 2.2 4.5 6 10.1 8.6 12.8 2.6 2.7 7.9 7 11.7 9.6 3.8 2.6 9.7 5.7 13 7 3.3 1.2 9.4 2.7 13.5 3.3 4.1 0.6 10.4 1.1 14 1 3.6-0.1 7.8-0.6 9.5-1.1 1.7-0.6 4.3-1.3 6-1.5 1.7-0.3 4.3-1.2 6-2 1.7-0.9 3.6-1.6 4.2-1.6 0.7 0 3.9-1.5 7-3.4 3.2-1.9 7.4-4.9 9.3-6.8 1.9-1.9 5.1-5.4 7.1-7.8 2.1-2.5 5.5-8.1 7.7-12.5 2.3-4.4 4.8-10.7 5.7-14 0.9-3.6 1.6-10 1.5-16 0-5.5-0.4-10.4-0.9-11-0.5-0.6-0.8-1.4-0.5-2 0.3-0.6-0.1-2.4-0.7-4-0.7-1.6-1.1-3.6-1.1-4.3 0.1-0.6-0.1-1.2-0.6-1.2-0.4 0-0.7-0.6-0.8-1.3 0-0.6-0.7-2.7-1.5-4.5-0.8-1.8-1.7-3.3-2.2-3.2-0.4 0-0.7-0.7-0.7-1.5 0-0.8-1-3.4-2.3-5.6-1.2-2.3-4.8-6.8-8-10-3.1-3.3-6.1-5.9-6.7-5.9-0.6 0-1.1 0.1-1.3 0.2-0.2 0.2-1.7-0.8-3.3-2.2-1.6-1.4-5.2-3.5-7.9-4.7-2.8-1.2-7.4-2.9-10.3-3.7-2.8-0.9-8.7-1.9-13-2.2-4.2-0.3-9.3-0.6-11.2-0.8-1.9-0.1-5.1 0.1-7 0.5-1.9 0.3-4.8 1.3-6.5 2.2zm-658.8 0.6c-0.4 0-0.9 0.1-1.2 0.1-0.3 0-0.8 0.1-1.3 0.3-0.4 0.1-2.3 0.9-4.2 1.7-1.9 0.7-6.7 3.5-10.5 6.1-3.8 2.6-8.6 6.5-10.5 8.7-1.9 2.2-4.7 5.8-6.3 7.9-1.5 2.1-2.7 4.2-2.7 4.8 0 0.6-0.9 3-2.1 5.5-1.2 2.5-2.2 4.9-2.3 5.5-0.1 0.6-0.5 1.4-0.8 2-0.4 0.6-1.3 5.1-2.1 10-0.9 4.9-1.3 11.2-1 14 0.2 2.7 0.7 5.7 1 6.5 0.3 0.8 0.7 3.4 0.9 5.7 0.2 2.4 1.8 7.8 3.6 12 1.7 4.3 5.7 11.1 8.7 15.2 3.1 4.1 6.7 8.2 8.1 9.3 1.4 1 3.8 2.8 5.4 4.1 1.7 1.2 5.5 3.4 8.5 4.8 3.1 1.5 5.9 2.5 6.3 2.3 0.5-0.2 0.8 0 0.8 0.6 0 0.6 2.1 1.4 4.7 1.8 2.7 0.5 8 1.1 11.8 1.3 3.8 0.2 9.5 0.3 12.5 0.2 3 0 8.4-0.8 12-1.8 3.6-0.9 9.9-3.3 14-5.3 5.4-2.7 9.6-5.8 15-11.2 6.1-6 8.5-9.4 12.3-17 2.5-5.2 5.3-12.2 6-15.5 0.8-3.6 1.3-10.5 1.2-17-0.1-6.5-0.7-12.2-1.5-14-0.8-1.6-1.5-4.1-1.6-5.5-0.2-1.4-1.3-4.5-2.6-7-1.2-2.5-4.6-8.2-7.5-12.8-2.9-4.5-5.7-8.2-6.3-8.2-0.6 0-3.6-2-6.8-4.4-3.1-2.4-7.5-5.3-9.7-6.4-2.2-1.1-6.9-3-10.5-4.3-5.4-1.9-9.1-2.3-21.5-2.6-12-0.4-15.4-0.1-17 1-1.1 0.8-2.3 1.5-2.8 1.6zm318.3 142.7c-1.9 0.8-4.2 1.6-5.2 1.7-0.9 0.1-2 0.5-2.5 0.9-0.4 0.4-1.4 0.5-2.1 0.2-0.6-0.2-1.2-0.1-1.2 0.4 0.1 0.4-1.2 1.3-2.7 2-1.5 0.7-3.9 1.5-5.3 1.7-1.4 0.3-2.9 1.3-3.5 2.2-0.6 0.9-1.6 1.3-2.3 1-0.6-0.4-1.4 0-1.7 0.8-0.3 0.8-0.8 1.3-1.3 1-0.4-0.2-3 1-5.7 2.7-2.8 1.7-7 4.8-9.5 6.9-2.5 2.1-4.7 3.6-5 3.3-0.3-0.2-3.1 2.6-6.2 6.3-3.1 3.7-7.3 8.4-9.2 10.3-2 1.9-3.6 4.1-3.6 4.8 0 0.6-1.8 3.8-4 7-2.2 3.1-4 6-4 6.5 0 0.4-1.6 3.2-3.5 6.2-1.9 3-3.8 6.7-4.1 8.3-0.4 1.5-1.3 3.4-2.1 4.2-0.7 0.8-1.6 3.8-1.9 6.5-0.3 2.8-0.9 5.5-1.4 6-0.4 0.5-1.1 3.3-1.5 6-0.4 2.8-0.9 10.9-1.1 18-0.4 9.7-0.1 14.5 1.1 19 0.8 3.3 1.5 7.7 1.5 9.8 0 2 0.4 3.9 1 4.2 0.6 0.3 1.3 2.6 1.6 5.2 0.4 2.7 1 5.3 1.4 5.8 0.4 0.5 1.3 2.8 2 5 0.7 2.2 1.8 4.6 2.4 5.3 0.6 0.8 0.7 1.3 0.1 1.2-0.6 0-0.3 0.7 0.6 1.7 0.9 1 2.3 3.4 3.2 5.3 1 1.9 3 5.6 4.5 8.2 1.5 2.6 4.2 6.3 5.9 8.3 1.8 1.9 3.3 3.8 3.3 4.2 0 0.5 3.5 4.2 7.8 8.3 4.2 4.1 10.6 9.6 14.2 12.1 3.6 2.5 9.9 6.4 14 8.6 4.1 2.3 12.7 5.8 19 7.8 6.6 2.2 15.3 4.2 20.5 4.8 4.9 0.5 13.9 1.1 20 1.2 8.5 0.2 13.5-0.3 22-2.1 6.1-1.3 13.9-3.3 17.5-4.5 3.6-1.1 10.3-4 15-6.2 4.7-2.3 11.7-6.6 15.5-9.6 3.8-2.9 10.7-9 15.3-13.5 4.5-4.4 8.2-8.3 8.2-8.6 0-0.3 2.3-4.1 5.2-8.5 2.9-4.5 6.9-11.2 9-15 2-3.9 5.1-11.3 6.8-16.5 1.8-5.2 3.6-12 4.1-15 0.6-3 1.2-9.8 1.6-15 0.3-6.4 0-13.2-1.2-21-0.9-6.3-1.9-12-2.3-12.5-0.3-0.5-0.7-2.2-0.9-3.8-0.2-1.5-1.5-6.2-2.9-10.5-1.4-4.2-4.8-12-7.5-17.2-2.6-5.2-6.5-11.8-8.6-14.6-2.1-2.8-4.8-6.2-6-7.5-1.2-1.3-3.9-4.4-6-6.8-2.1-2.4-7-6.7-10.8-9.6-3.8-2.8-10.4-7.3-14.5-9.8-4.1-2.5-10.4-5.9-14-7.6-3.6-1.6-8.1-3.3-10-3.7-1.9-0.4-3.9-1-4.5-1.5-0.6-0.4-3.9-1.2-7.5-1.8-3.6-0.5-11.9-1.2-18.5-1.5-6.6-0.2-17.2 0-23.5 0.5-6.3 0.5-13.1 1.6-15 2.5zm348.9 249.9c-7.1 0.2-11 0.9-15.9 2.9-3.6 1.4-6.8 3.2-7.2 4.1-0.4 0.8-1.6 1.5-2.7 1.5-1.1 0-3.5 1.5-5.4 3.2-1.8 1.8-3.7 4.1-4 5-0.4 1.1-1.2 1.5-1.9 1q-1.3-0.7-0.5 0.5c0.4 0.7 0.2 1.6-0.5 1.9-0.6 0.3-2.8 2.9-4.8 5.7-2 2.9-5.1 8.1-6.8 11.7-1.8 3.6-3.8 9.4-4.5 13-0.8 3.6-1.3 11-1.2 16.5 0.2 5.5 0.8 12.7 1.6 16 0.7 3.3 3.3 10 5.8 14.9 3.3 6.4 6.6 10.9 11.6 16 3.8 3.9 8.1 7.8 9.5 8.5 1.4 0.8 4.1 2.2 6 3.3 1.9 1 4.2 2 5 2.2 0.8 0.1 2.2 0.6 3 0.9 0.8 0.3 3.5 1.3 6 2.2 3.6 1.3 7.1 1.6 18 1.2 7.4-0.2 14.4-0.7 15.5-1 1.1-0.4 4.5-1.3 7.5-2 3-0.8 8-2.7 11-4.3 3-1.6 8.8-6 12.8-9.9 4-3.9 7.3-7.3 7.2-7.8 0-0.4 1.3-2.6 2.9-5 1.6-2.3 3.7-6.2 4.6-8.7 0.9-2.5 2.1-5.4 2.6-6.5 0.4-1.1 1.3-3.8 1.9-6 0.5-2.2 1-8.6 1-14.3 0-5.8-0.4-10.4-1-10.7-0.6-0.3-0.8-1.1-0.5-1.8 0.3-0.6 0.1-2.6-0.6-4.2-0.6-1.6-1.3-3.9-1.4-5-0.1-1.1-1.6-4.9-3.3-8.5-1.7-3.6-4.8-8.8-6.9-11.6-2.1-2.8-6.5-7.5-9.8-10.4-3.3-2.9-9.6-7-14-9.1-4.4-2.2-10.3-4.3-13-4.8-2.8-0.6-7.8-1.2-11.2-1.5-3.3-0.3-6.3-0.3-6.5 0-0.3 0.3-4.7 0.7-9.9 0.9zm-662.9 0.8c-1.9 0.2-5 1.1-6.8 2-1.7 0.9-3.6 1.5-4.2 1.2-0.6-0.3-1.8 0.3-2.8 1.3-0.9 1-4.1 3.4-7.1 5.3-3 1.9-7.7 5.9-10.5 8.9-2.8 3.1-6.8 8.7-8.8 12.5-2 3.9-3.9 7.9-4 9-0.2 1.1-0.9 2.9-1.5 4-0.6 1.1-1.7 4.9-2.3 8.5-0.6 3.6-1 9.9-0.7 14 0.2 4.1 0.7 10 1.1 13 0.4 3 1.9 8.2 3.2 11.5 1.4 3.3 3.7 8 5.1 10.5 1.5 2.5 5.4 7.4 8.7 10.9 3.4 3.5 8.3 7.8 11.1 9.6 2.7 1.7 6.1 3.6 7.5 4 1.4 0.5 2.7 1 3 1 0.3 0.1 2.5 0.7 5 1.5 2.5 0.7 5.2 1.5 6 1.8 0.8 0.3 6.4 0.7 12.5 0.9 9 0.4 12.6 0.1 19.5-1.7 4.7-1.1 11.7-3.6 15.5-5.5 3.8-1.8 9.2-5.3 12-7.8 2.7-2.4 6.8-7 9-10.3 2.2-3.2 5-8.2 6.3-10.9 1.3-2.8 2.8-5.9 3.3-7 0.6-1.1 1.1-2.7 1.3-3.5 0.2-0.8 0.7-2.4 1.2-3.5 0.5-1.1 0.9-7.9 0.9-15.1 0-9-0.4-13.5-1.2-14.5-0.7-0.8-1-1.6-0.8-1.9 0.3-0.3-0.9-4.3-2.6-9-1.8-4.7-4.1-9.9-5.3-11.5-1.1-1.6-2.8-3.9-3.6-5-0.8-1.1-4.3-4.8-7.8-8.3-3.4-3.4-6.8-6.2-7.5-6.2-0.6 0-3-1.4-5.2-3-2.2-1.7-5.2-3-6.8-3-1.5 0-2.7-0.5-2.7-1 0-0.5-2.4-1.6-5.3-2.4-3.4-1-9.6-1.4-18-1.4-7 0.1-12.8 0.3-13 0.4-0.1 0.2-1.8 0.4-3.7 0.7zm319 189.7c-3.6 1.6-8.4 4.2-10.7 5.7-2.3 1.6-6.5 5.1-9.5 7.9-2.9 2.8-7.2 8.2-9.5 12-2.2 3.8-5.3 10.3-6.8 14.4-2.1 6.1-2.6 9.4-2.7 17.5-0.1 5.5 0 11.6 0 13.5 0.1 1.9 1 6.1 1.9 9.3 1 3.2 2.1 5.7 2.5 5.7 0.5 0 0.6 0.5 0.3 1-0.3 0.5 0.6 3.1 1.9 5.8 1.4 2.6 4.4 7.6 6.8 11.1 2.4 3.6 6.9 8.4 10.3 11 3.3 2.6 8.9 6 12.5 7.5 3.6 1.6 10.8 3.8 16 4.8 6.7 1.4 11.6 1.8 16.5 1.4 3.8-0.3 8.3-0.8 10-1.1 1.7-0.3 5-1.1 7.5-1.6 2.5-0.6 7.7-2.5 11.5-4.3 3.8-1.9 8.6-4.6 10.6-6.2 2-1.6 5.7-5.4 8.1-8.4 2.5-3 6.4-9.1 8.6-13.5 2.2-4.4 4.8-10.5 5.8-13.5 1.3-4.1 1.8-8.5 1.8-17 0-7.4-0.5-12.6-1.4-14.5-0.7-1.6-1.4-4.4-1.6-6-0.1-1.6-0.7-3.1-1.3-3.2-0.6-0.2-0.9-0.8-0.6-1.3 0.3-0.5 0.1-1.9-0.5-3-0.6-1.1-1.4-2.9-2-4-0.6-1.1-1.6-3-2.3-4.2-0.6-1.3-2.5-4.1-4.1-6.3-1.6-2.2-4.3-5.5-6-7.3-1.7-1.8-5.6-5-8.6-7-3-2.1-7.5-4.7-10-5.9-2.5-1.2-5.8-2.5-7.5-2.9-1.7-0.4-3.6-1.2-4.4-1.8-0.9-0.7-7.3-1.2-16.5-1.3-11.7-0.2-15.7 0.1-17.6 1.2-1.4 0.8-5.4 2.8-9 4.5z"/>
	</g>
	<path id="SHIELD" class="s2" aria-label="SHIELD"  d="m249.7 554.1q-39.3 0-71.5-8.8-32.3-8.8-63.5-30.5v-85.9h55.2l7.5 50.5q11 9.3 30.3 15.2 19.3 5.6 42 5.6 19.3 0 32.5-5.4 13.4-5.4 20.2-15.1 7.1-10 7.1-23.5 0-12.7-6.3-22.4-6.1-10-20.5-18.1-14.2-8.3-38.6-15.9-42.3-12.4-70.1-27.1-27.6-14.9-41.5-35.4-13.7-20.7-13.7-49.8 0-28.8 15.9-50.8 16.1-22.2 44.4-34.9 28.4-12.7 65.5-13.2 41-0.4 72.5 9.8 31.7 10.3 54.7 28.6v80.1h-53.5l-9.3-48.9q-9.3-5.8-25.1-10.2-15.7-4.4-35.7-4.4-17.1 0-30.2 5.1-13 5.1-20.6 14.9-7.5 9.8-7.5 23.7 0 11.9 6.6 21 6.6 8.8 21.9 16.8 15.7 7.8 43 16.9 58.8 16.3 89.1 43.2 30.5 26.8 30.5 70.5 0 30.3-16.3 52.5-16.4 22-45.9 34-29.6 11.9-69.1 11.9zm379.6-5.1h-147.2v-42.7l37.9-7.3v-255.2l-37.9-7.3v-43h147.2v43l-38.1 7.3v102.6h145.1v-102.6l-38.1-7.3v-43h38.1 71 38.1v43l-38.1 7.3v255.2l38.1 7.3v42.7h-147.2v-42.7l38.1-7.3v-97.7h-145.1v97.7l38.1 7.3zm463.4 0h-147v-42.7l37.9-7.4v-255.1l-37.9-7.3v-43h147v43l-37.8 7.3v255.1l37.8 7.4zm381.6 0h-281.2v-42.8l37.8-7.3v-255.1l-37.8-7.3v-43h275.8v95.9h-54.7l-3.1-41h-108.9v89.4h120.3v54.9h-120.3v101.6h114.7l3.2-42.5h54.2zm378.4 0h-267.3v-42.7l37.8-7.4v-255.1l-37.8-7.3v-43h37.8 71.3 43v43l-43 7.3v250.5h100.4l3.4-52h54.4zm255.6 0h-156.9v-42.7l38.3-8.1v-253.4l-38.3-8.3v-43h38.3 117.7q47.6 0 84 22.5 36.3 22.2 56.6 61.8 20.5 39.3 20.5 90.3v6.6q0 50.5-20.3 90.1-20 39.3-56.1 61.7-36.1 22.5-83.8 22.5zm-47.3-300.8v246.3h43.7q29.5 0 50-15.3 20.5-15.7 31.3-42.8 11-27.1 11-61.7v-6.9q0-35.1-11-62-10.8-27.1-31.3-42.2-20.5-15.4-50-15.4z"/>
	<path id="CRYPTO" class="s2" aria-label="CRYPTO"  d="m248 995.1q-57.5 0-100-21.5-42.6-21.7-65.9-61.2-23-39.8-23-94v-12q0-51.8 22.2-91.5 22.5-40.1 64-62.8 41.4-22.7 98.6-22.7 40.1 0 75.1 10.3 35.2 10.2 62.8 31.2v85.9h-58.8l-8.1-53.9q-8.9-5.9-19.5-10-10.6-4.2-23-6.4-12.2-2.2-26.6-2.2-33.6 0-57.7 14.9-24.1 14.9-37.1 42.3-12.8 27.1-12.8 64.4v12.5q0 37.3 13.6 64.7 13.5 27.3 38.5 42.4 24.9 14.9 59 14.9 17.1 0 34.2-3.4 17.3-3.6 31.4-9.3l8.1-50h58.8v85q-23 13.6-57.4 23.1-34.4 9.3-76.4 9.3zm333.6-5.1h-163.4v-42.7l42-7.3v-255.2l-42-7.3v-43h186.9q45.6 0 78.1 12.7 32.5 12.7 49.9 36.4 17.6 23.7 17.6 56.9 0 31.2-17.4 55.9-17.3 24.7-48.2 38.8-30.9 14.2-71.3 14.4h-74.5v90.4l42.3 7.3zm186.4 0h-95.9l-66.4-153.6 71.3-15.9 57.4 119.7 33.6 7.1zm-228.7-300.6v105.2h64.5q34.1 0 50.9-12.9 17.1-13.2 17.1-38.1 0-24.6-16.8-39.3-16.8-14.9-49.9-14.9zm504.1 300.6h-163.4v-42.8l42.3-7.3v-71.8l-117.1-185.8-37.9-4.8v-43h157.4v43l-32.2 4.1 65.5 113.5 6 11.5 1.6-0.2 6-10.8 72.9-114-43.4-4.1v-43h154.5v43l-39 4.8-115.5 180.2v77.4l42.3 7.3zm301.3 0h-163.4v-42.7l42-7.3v-255.1l-42-7.4v-42.9h42 145.8q45.3 0 78.1 14.4 32.8 14.1 50.4 39.8 17.6 25.3 17.6 59.3 0 33.9-17.6 59.6-17.6 25.3-50.4 39.5-32.8 13.9-78.1 13.9h-66.6v78.9l42.2 7.3zm-42.2-300.5v116.7h66.6q33.1 0 49.9-16.1 17.1-16.4 17.1-41.6 0-25.6-17.1-42.2-16.8-16.8-49.9-16.8zm492.7 300.5h-163.9v-42.7l42.2-7.3v-250.5h-71.8l-4.3 42.4h-59.9v-97.4h352v97.4h-60.1l-4.4-42.4h-72.3v250.5l42.5 7.3zm294.9 5.1q-39.9 0-72.7-13.4-32.8-13.5-56.6-37.6-23.6-24.4-36.3-57.2-12.8-32.9-12.8-72v-5.3q0-38.9 12.8-71.6 12.7-32.9 36.3-57.3 23.6-24.5 56.4-37.9 32.7-13.4 72.6-13.4 40.1 0 73.2 13.4 33 13.4 56.9 37.9 23.8 24.4 36.5 57.3 13.1 32.7 13.1 71.6v5.3q0 39.1-13.1 72-12.7 32.8-36.5 57.2-23.9 24.1-56.9 37.6-32.8 13.4-72.9 13.4zm0-55.4q33.6 0 55.8-15.6 22.2-15.7 33.3-43.7 11.4-28.1 11.4-65.5v-5.8q0-36.9-11.4-64.7-11.4-28.1-33.9-43.7-22.2-15.7-55.5-15.7-33.1 0-55 15.7-22 15.4-33.1 43.2-10.8 27.8-10.8 65.2v5.8q0 37.4 10.8 65.5 11.1 28 33.1 43.7 22.2 15.6 55.3 15.6z"/>
</svg>