<svg width="24" height="24" viewBox="0 0 24 24" fill="none" xmlns="http://www.w3.org/2000/svg">
  <rect width="24" height="24" fill="black"/>
  <path d="M20.317 4.369a19.791 19.791 0 00-4.885-1.515.074.074 0 00-.079.037c-.211.375-.444.864-.608 1.249-1.844-.276-3.68-.276-5.486 0-.164-.393-.405-.874-.617-1.249a.077.077 0 00-.079-.037c-1.6.273-3.15.747-4.885 1.515a.07.07 0 00-.032.027C.533 9.093-.32 13.676.099 18.207a.082.082 0 00.031.056c2.052 1.507 4.045 2.422 5.992 3.029a.078.078 0 00.084-.027c.461-.63.873-1.295 1.226-1.994a.076.076 0 00-.041-.104c-.652-.247-1.27-.547-1.872-.892a.077.077 0 01-.008-.13c.125-.094.25-.192.373-.291a.074.074 0 01.077-.01c3.927 1.793 8.18 1.793 12.061 0a.073.073 0 01.078.009c.124.099.248.197.373.291a.077.077 0 01-.007.13c-.602.345-1.22.645-1.873.892a.076.076 0 00-.04.105c.36.698.772 1.363 1.226 1.993a.078.078 0 00.084.028c1.947-.607 3.94-1.522 5.992-3.029a.077.077 0 00.031-.056c.5-5.177-.838-9.713-4.618-13.811a.061.061 0 00-.031-.027zM8.02 15.331c-1.183 0-2.157-1.085-2.157-2.419 0-1.333.955-2.418 2.157-2.418 1.21 0 2.175 1.085 2.157 2.418 0 1.334-.955 2.419-2.157 2.419zm7.96 0c-1.183 0-2.157-1.085-2.157-2.419 0-1.333.955-2.418 2.157-2.418 1.21 0 2.175 1.085 2.157 2.418 0 1.334-.955 2.419-2.157 2.419z" fill="white"/>
</svg>